{"asset":{"version":"2.0","generator":"GLTFExporter"},"scenes":[{"nodes":[0,1,2,3,4,5,6],"name":"Scene","extensions":{"MOZ_hubs_components":{"kit":{"authorName":"JCo","authorUrl":"https://hubs.mozilla.com","license":"CC-BY 2.0"}}}}],"scene":0,"nodes":[{"translation":[0,0,-61],"name":"Rock_A","mesh":0,"extensions":{"MOZ_hubs_components":{"kit-piece":{"id":"Rock_A","name":"Rock_A","tags":["Rocks"],"thumbnailUrl":"./thumbnails/Rock_A.jpeg"}}}},{"translation":[0,0,-39.19999694824219],"name":"Rock_B","mesh":1,"extensions":{"MOZ_hubs_components":{"kit-piece":{"id":"Rock_B","name":"Rock_B","tags":["Rocks"],"thumbnailUrl":"./thumbnails/Rock_B.jpeg"}}}},{"translation":[0,0,-29.19999885559082],"name":"Rock_C","mesh":2,"extensions":{"MOZ_hubs_components":{"kit-piece":{"id":"Rock_C","name":"Rock_C","tags":["Rocks"],"thumbnailUrl":"./thumbnails/Rock_C.jpeg"}}}},{"translation":[0,0,-21.19999885559082],"name":"Rock_D","mesh":3,"extensions":{"MOZ_hubs_components":{"kit-piece":{"id":"Rock_D","name":"Rock_D","tags":["Rocks"],"thumbnailUrl":"./thumbnails/Rock_D.jpeg"}}}},{"translation":[0,0,-15],"name":"Rock_E","mesh":4,"extensions":{"MOZ_hubs_components":{"kit-piece":{"id":"Rock_E","name":"Rock_E","tags":["Rocks"],"thumbnailUrl":"./thumbnails/Rock_E.jpeg"}}}},{"translation":[0,0,-6],"name":"Rock_F","mesh":5,"extensions":{"MOZ_hubs_components":{"kit-piece":{"id":"Rock_F","name":"Rock_F","tags":["Rocks"],"thumbnailUrl":"./thumbnails/Rock_F.jpeg"}}}},{"name":"Rock_G","mesh":6,"extensions":{"MOZ_hubs_components":{"kit-piece":{"id":"Rock_G","name":"Rock_G","tags":["Rocks"],"thumbnailUrl":"./thumbnails/Rock_G.jpeg"}}}}],"bufferViews":[{"buffer":0,"byteOffset":0,"byteLength":16260,"target":34962,"byteStride":12},{"buffer":0,"byteOffset":16260,"byteLength":16260,"target":34962,"byteStride":12},{"buffer":0,"byteOffset":32520,"byteLength":10840,"target":34962,"byteStride":8},{"buffer":0,"byteOffset":43360,"byteLength":10840,"target":34962,"byteStride":8},{"buffer":0,"byteOffset":54200,"byteLength":8576,"target":34963},{"buffer":0,"byteOffset":62776,"byteLength":12408,"target":34962,"byteStride":12},{"buffer":0,"byteOffset":75184,"byteLength":12408,"target":34962,"byteStride":12},{"buffer":0,"byteOffset":87592,"byteLength":8272,"target":34962,"byteStride":8},{"buffer":0,"byteOffset":95864,"byteLength":8272,"target":34962,"byteStride":8},{"buffer":0,"byteOffset":104136,"byteLength":7428,"target":34963},{"buffer":0,"byteOffset":111564,"byteLength":7680,"target":34962,"byteStride":12},{"buffer":0,"byteOffset":119244,"byteLength":7680,"target":34962,"byteStride":12},{"buffer":0,"byteOffset":126924,"byteLength":5120,"target":34962,"byteStride":8},{"buffer":0,"byteOffset":132044,"byteLength":5120,"target":34962,"byteStride":8},{"buffer":0,"byteOffset":137164,"byteLength":3168,"target":34963},{"buffer":0,"byteOffset":140332,"byteLength":4320,"target":34962,"byteStride":12},{"buffer":0,"byteOffset":144652,"byteLength":4320,"target":34962,"byteStride":12},{"buffer":0,"byteOffset":148972,"byteLength":2880,"target":34962,"byteStride":8},{"buffer":0,"byteOffset":151852,"byteLength":2880,"target":34962,"byteStride":8},{"buffer":0,"byteOffset":154732,"byteLength":1944,"target":34963},{"buffer":0,"byteOffset":156676,"byteLength":8256,"target":34962,"byteStride":12},{"buffer":0,"byteOffset":164932,"byteLength":8256,"target":34962,"byteStride":12},{"buffer":0,"byteOffset":173188,"byteLength":5504,"target":34962,"byteStride":8},{"buffer":0,"byteOffset":178692,"byteLength":5504,"target":34962,"byteStride":8},{"buffer":0,"byteOffset":184196,"byteLength":3828,"target":34963},{"buffer":0,"byteOffset":188024,"byteLength":1752,"target":34962,"byteStride":12},{"buffer":0,"byteOffset":189776,"byteLength":1752,"target":34962,"byteStride":12},{"buffer":0,"byteOffset":191528,"byteLength":1168,"target":34962,"byteStride":8},{"buffer":0,"byteOffset":192696,"byteLength":1168,"target":34962,"byteStride":8},{"buffer":0,"byteOffset":193864,"byteLength":648,"target":34963},{"buffer":0,"byteOffset":194512,"byteLength":7404,"target":34962,"byteStride":12},{"buffer":0,"byteOffset":201916,"byteLength":7404,"target":34962,"byteStride":12},{"buffer":0,"byteOffset":209320,"byteLength":4936,"target":34962,"byteStride":8},{"buffer":0,"byteOffset":214256,"byteLength":4936,"target":34962,"byteStride":8},{"buffer":0,"byteOffset":219192,"byteLength":2832,"target":34963}],"buffers":[{"byteLength":222024,"uri":"buffer-9702c4845c13d7a7962e6aa11bbd9935f7a07b07.bin"}],"accessors":[{"bufferView":0,"componentType":5126,"count":1355,"max":[12.459429740905762,9.60982894897461,13.78126049041748],"min":[-13.357358932495117,-8.838712692260742,-13.130644798278809],"type":"VEC3","normalized":false},{"bufferView":1,"componentType":5126,"count":1355,"max":[0.9984740614891052,0.99945068359375,0.9986571669578552],"min":[-0.999481201171875,-0.9988097548484802,-0.9996337890625],"type":"VEC3","normalized":false},{"bufferView":2,"componentType":5126,"count":1355,"max":[0.9996618628501892,0.9975888729095459],"min":[0.0005101952701807022,0.0022455453872680664],"type":"VEC2","normalized":false},{"bufferView":3,"componentType":5126,"count":1355,"max":[0.9996618628501892,0.9975888729095459],"min":[0.0005101952701807022,0.0022455453872680664],"type":"VEC2","normalized":false},{"bufferView":4,"componentType":5123,"count":4287,"max":[1354],"min":[0],"type":"SCALAR","normalized":false},{"bufferView":5,"componentType":5126,"count":1034,"max":[2.881171464920044,8.105583190917969,3.158369302749634],"min":[-3.050821542739868,-0.3039829730987549,-2.7166364192962646],"type":"VEC3","normalized":false},{"bufferView":6,"componentType":5126,"count":1034,"max":[0.999542236328125,0.9998779296875,0.9961241483688354],"min":[-0.9965208768844604,-0.999908447265625,-0.9970396757125854],"type":"VEC3","normalized":false},{"bufferView":7,"componentType":5126,"count":1034,"max":[0.9984256029129028,0.9948630928993225],"min":[0.004874925594776869,0.0014814138412475586],"type":"VEC2","normalized":false},{"bufferView":8,"componentType":5126,"count":1034,"max":[0.9984256029129028,0.9948630928993225],"min":[0.004874925594776869,0.0014814138412475586],"type":"VEC2","normalized":false},{"bufferView":9,"componentType":5123,"count":3714,"max":[1033],"min":[0],"type":"SCALAR","normalized":false},{"bufferView":10,"componentType":5126,"count":640,"max":[2.5483760833740234,2.033018112182617,4.266522407531738],"min":[-2.833994150161743,-0.9968356490135193,-4.164405822753906],"type":"VEC3","normalized":false},{"bufferView":11,"componentType":5126,"count":640,"max":[0.999176025390625,0.9985045790672302,0.999603271484375],"min":[-0.9996337890625,-0.999908447265625,-0.9981078505516052],"type":"VEC3","normalized":false},{"bufferView":12,"componentType":5126,"count":640,"max":[0.9563760757446289,0.988265335559845],"min":[0.09747468680143356,0.002024710178375244],"type":"VEC2","normalized":false},{"bufferView":13,"componentType":5126,"count":640,"max":[0.9563760757446289,0.988265335559845],"min":[0.09747468680143356,0.002024710178375244],"type":"VEC2","normalized":false},{"bufferView":14,"componentType":5123,"count":1584,"max":[639],"min":[0],"type":"SCALAR","normalized":false},{"bufferView":15,"componentType":5126,"count":360,"max":[1.5539438724517822,4.047738075256348,1.3482037782669067],"min":[-1.4381502866744995,-0.5702663660049438,-1.457733154296875],"type":"VEC3","normalized":false},{"bufferView":16,"componentType":5126,"count":360,"max":[0.999114990234375,0.9868770241737366,0.9594408869743347],"min":[-0.9942625164985657,-0.9921262264251709,-0.964262843132019],"type":"VEC3","normalized":false},{"bufferView":17,"componentType":5126,"count":360,"max":[0.9890828728675842,0.9955684542655945],"min":[0.05910234898328781,0.00572890043258667],"type":"VEC2","normalized":false},{"bufferView":18,"componentType":5126,"count":360,"max":[0.9890828728675842,0.9955684542655945],"min":[0.05910234898328781,0.00572890043258667],"type":"VEC2","normalized":false},{"bufferView":19,"componentType":5123,"count":972,"max":[359],"min":[0],"type":"SCALAR","normalized":false},{"bufferView":20,"componentType":5126,"count":688,"max":[3.1905202865600586,2.3466057777404785,3.7758357524871826],"min":[-3.3521909713745117,-1.4049370288848877,-2.056260347366333],"type":"VEC3","normalized":false},{"bufferView":21,"componentType":5126,"count":688,"max":[0.9983519911766052,0.9947813153266907,0.9840998649597168],"min":[-0.9923093318939209,-0.9981994032859802,-0.9899594187736511],"type":"VEC3","normalized":false},{"bufferView":22,"componentType":5126,"count":688,"max":[0.9995009303092957,0.9015575051307678],"min":[0.0026043998077511787,0.0020360946655273438],"type":"VEC2","normalized":false},{"bufferView":23,"componentType":5126,"count":688,"max":[0.9995009303092957,0.9015575051307678],"min":[0.0026043998077511787,0.0020360946655273438],"type":"VEC2","normalized":false},{"bufferView":24,"componentType":5123,"count":1914,"max":[687],"min":[0],"type":"SCALAR","normalized":false},{"bufferView":25,"componentType":5126,"count":146,"max":[1.1181957721710205,1.1182304620742798,1.0672968626022339],"min":[-1.0740066766738892,-1.1939969062805176,-1.164929747581482],"type":"VEC3","normalized":false},{"bufferView":26,"componentType":5126,"count":146,"max":[0.9938963055610657,0.9897152781486511,0.9865108132362366],"min":[-0.9855037331581116,-0.9748832583427429,-0.99969482421875],"type":"VEC3","normalized":false},{"bufferView":27,"componentType":5126,"count":146,"max":[0.9949831366539001,0.8172152042388916],"min":[0.003416765248402953,0.022272825241088867],"type":"VEC2","normalized":false},{"bufferView":28,"componentType":5126,"count":146,"max":[0.9949831366539001,0.8172152042388916],"min":[0.003416765248402953,0.022272825241088867],"type":"VEC2","normalized":false},{"bufferView":29,"componentType":5123,"count":324,"max":[145],"min":[0],"type":"SCALAR","normalized":false},{"bufferView":30,"componentType":5126,"count":617,"max":[1.2113831043243408,0.28291600942611694,1.235702633857727],"min":[-1.9555386304855347,-0.14732588827610016,-2.047743558883667],"type":"VEC3","normalized":false},{"bufferView":31,"componentType":5126,"count":617,"max":[0.999725341796875,0.9795526266098022,0.9857173562049866],"min":[-0.9947202801704407,-0.9899289011955261,-0.9940794110298157],"type":"VEC3","normalized":false},{"bufferView":32,"componentType":5126,"count":617,"max":[0.507572591304779,0.6380444765090942],"min":[0.40386298298835754,0.5250403881072998],"type":"VEC2","normalized":false},{"bufferView":33,"componentType":5126,"count":617,"max":[0.507572591304779,0.6380444765090942],"min":[0.40386298298835754,0.5250403881072998],"type":"VEC2","normalized":false},{"bufferView":34,"componentType":5123,"count":1416,"max":[616],"min":[0],"type":"SCALAR","normalized":false}],"materials":[{"pbrMetallicRoughness":{"metallicFactor":1,"roughnessFactor":1,"metallicRoughnessTexture":{"index":0},"baseColorTexture":{"index":1}},"normalTexture":{"index":2,"scale":1},"occlusionTexture":{"index":0,"texCoord":1},"doubleSided":true,"name":"RocksGray_Single"},{"pbrMetallicRoughness":{"metallicFactor":1,"roughnessFactor":1,"metallicRoughnessTexture":{"index":3},"baseColorTexture":{"index":4}},"normalTexture":{"index":5,"scale":1},"occlusionTexture":{"index":3,"texCoord":1},"doubleSided":true,"name":"RocksGray"}],"textures":[{"sampler":0,"source":0},{"sampler":1,"source":1},{"sampler":2,"source":2},{"sampler":3,"source":3},{"sampler":4,"source":4},{"sampler":5,"source":5}],"samplers":[{"magFilter":9729,"minFilter":9987,"wrapS":10497,"wrapT":10497},{"magFilter":9729,"minFilter":9987,"wrapS":10497,"wrapT":10497},{"magFilter":9729,"minFilter":9987,"wrapS":10497,"wrapT":10497},{"magFilter":9729,"minFilter":9987,"wrapS":10497,"wrapT":10497},{"magFilter":9729,"minFilter":9987,"wrapS":10497,"wrapT":10497},{"magFilter":9729,"minFilter":9987,"wrapS":10497,"wrapT":10497}],"images":[{"mimeType":"image/png","name":"RocksGray_A_ORM","uri":"RocksGray_A_ORM-078b89b73e887342aeccae37296e059b951e8796.png"},{"mimeType":"image/jpeg","name":"RocksGray_A_BaseColor","uri":"RocksGray_A_BaseColor-30a51980f2e67d799feac6804e016207c0246bce.jpg"},{"mimeType":"image/png","name":"RocksGray_A_Normal","uri":"RocksGray_A_Normal-8b3a79decd97ff7c3daee040c5f594985cb13098.png"},{"mimeType":"image/png","name":"RocksGray_ORM","uri":"RocksGray_ORM-ef0941d1bcbdf953255c320c0d8c161264c0a96b.png"},{"mimeType":"image/jpeg","name":"RocksGray_BaseColor","uri":"RocksGray_BaseColor-e1bd685958d4e96a7cb0f21811de2bc614a502ba.jpg"},{"mimeType":"image/png","name":"RocksGray_Normal","uri":"RocksGray_Normal-f36f1d156f5da801e8e86f363958033addc24666.png"}],"meshes":[{"primitives":[{"mode":4,"attributes":{"POSITION":0,"NORMAL":1,"TEXCOORD_0":2,"TEXCOORD_1":3},"indices":4,"material":0}]},{"primitives":[{"mode":4,"attributes":{"POSITION":5,"NORMAL":6,"TEXCOORD_0":7,"TEXCOORD_1":8},"indices":9,"material":1}]},{"primitives":[{"mode":4,"attributes":{"POSITION":10,"NORMAL":11,"TEXCOORD_0":12,"TEXCOORD_1":13},"indices":14,"material":1}]},{"primitives":[{"mode":4,"attributes":{"POSITION":15,"NORMAL":16,"TEXCOORD_0":17,"TEXCOORD_1":18},"indices":19,"material":1}]},{"primitives":[{"mode":4,"attributes":{"POSITION":20,"NORMAL":21,"TEXCOORD_0":22,"TEXCOORD_1":23},"indices":24,"material":1}]},{"primitives":[{"mode":4,"attributes":{"POSITION":25,"NORMAL":26,"TEXCOORD_0":27,"TEXCOORD_1":28},"indices":29,"material":1}]},{"primitives":[{"mode":4,"attributes":{"POSITION":30,"NORMAL":31,"TEXCOORD_0":32,"TEXCOORD_1":33},"indices":34,"material":1}]}],"extensionsUsed":["MOZ_hubs_components"]}